<mxfile host="Electron" agent="Mozilla/5.0 (X11; Linux x86_64) AppleWebKit/537.36 (KHTML, like Gecko) draw.io/26.2.2 Chrome/134.0.6998.178 Electron/35.1.2 Safari/537.36" version="26.2.2">
  <diagram name="Page-1" id="_szOt2SRhm7ArISgknWF">
    <mxGraphModel dx="1428" dy="839" grid="1" gridSize="10" guides="1" tooltips="1" connect="1" arrows="1" fold="1" page="1" pageScale="1" pageWidth="1169" pageHeight="827" math="0" shadow="0">
      <root>
        <mxCell id="0" />
        <mxCell id="1" parent="0" />
        <mxCell id="HFxGlrl3mzMbIf2TtXgQ-19" value="" style="rounded=0;whiteSpace=wrap;html=1;dashed=1;" vertex="1" parent="1">
          <mxGeometry x="240" y="460" width="480" height="190" as="geometry" />
        </mxCell>
        <mxCell id="HFxGlrl3mzMbIf2TtXgQ-17" style="edgeStyle=orthogonalEdgeStyle;rounded=0;orthogonalLoop=1;jettySize=auto;html=1;exitX=0.5;exitY=1;exitDx=0;exitDy=0;entryX=0.25;entryY=0;entryDx=0;entryDy=0;" edge="1" parent="1" source="HFxGlrl3mzMbIf2TtXgQ-1" target="HFxGlrl3mzMbIf2TtXgQ-6">
          <mxGeometry relative="1" as="geometry" />
        </mxCell>
        <mxCell id="HFxGlrl3mzMbIf2TtXgQ-1" value="ds4-driver" style="rounded=0;whiteSpace=wrap;html=1;" vertex="1" parent="1">
          <mxGeometry x="410" y="250" width="120" height="60" as="geometry" />
        </mxCell>
        <mxCell id="HFxGlrl3mzMbIf2TtXgQ-2" value="motor-driver" style="rounded=0;whiteSpace=wrap;html=1;" vertex="1" parent="1">
          <mxGeometry x="740" y="510" width="120" height="60" as="geometry" />
        </mxCell>
        <mxCell id="HFxGlrl3mzMbIf2TtXgQ-3" value="servo-magazin-driver" style="rounded=0;whiteSpace=wrap;html=1;" vertex="1" parent="1">
          <mxGeometry x="580" y="550" width="120" height="60" as="geometry" />
        </mxCell>
        <mxCell id="HFxGlrl3mzMbIf2TtXgQ-4" value="servo-gun-driver" style="rounded=0;whiteSpace=wrap;html=1;" vertex="1" parent="1">
          <mxGeometry x="420" y="550" width="120" height="60" as="geometry" />
        </mxCell>
        <mxCell id="HFxGlrl3mzMbIf2TtXgQ-5" value="servo-gunarm-driver" style="rounded=0;whiteSpace=wrap;html=1;" vertex="1" parent="1">
          <mxGeometry x="260" y="550" width="120" height="60" as="geometry" />
        </mxCell>
        <mxCell id="HFxGlrl3mzMbIf2TtXgQ-8" style="edgeStyle=orthogonalEdgeStyle;rounded=0;orthogonalLoop=1;jettySize=auto;html=1;exitX=0;exitY=0.5;exitDx=0;exitDy=0;entryX=0.5;entryY=0;entryDx=0;entryDy=0;" edge="1" parent="1" source="HFxGlrl3mzMbIf2TtXgQ-6" target="HFxGlrl3mzMbIf2TtXgQ-5">
          <mxGeometry relative="1" as="geometry" />
        </mxCell>
        <mxCell id="HFxGlrl3mzMbIf2TtXgQ-9" style="edgeStyle=orthogonalEdgeStyle;rounded=0;orthogonalLoop=1;jettySize=auto;html=1;exitX=0.25;exitY=1;exitDx=0;exitDy=0;" edge="1" parent="1" source="HFxGlrl3mzMbIf2TtXgQ-6" target="HFxGlrl3mzMbIf2TtXgQ-4">
          <mxGeometry relative="1" as="geometry" />
        </mxCell>
        <mxCell id="HFxGlrl3mzMbIf2TtXgQ-10" style="edgeStyle=orthogonalEdgeStyle;rounded=0;orthogonalLoop=1;jettySize=auto;html=1;exitX=0.75;exitY=1;exitDx=0;exitDy=0;entryX=0.5;entryY=0;entryDx=0;entryDy=0;" edge="1" parent="1" source="HFxGlrl3mzMbIf2TtXgQ-6" target="HFxGlrl3mzMbIf2TtXgQ-3">
          <mxGeometry relative="1" as="geometry" />
        </mxCell>
        <mxCell id="HFxGlrl3mzMbIf2TtXgQ-11" style="edgeStyle=orthogonalEdgeStyle;rounded=0;orthogonalLoop=1;jettySize=auto;html=1;exitX=1;exitY=0.5;exitDx=0;exitDy=0;entryX=0.5;entryY=0;entryDx=0;entryDy=0;" edge="1" parent="1" source="HFxGlrl3mzMbIf2TtXgQ-6" target="HFxGlrl3mzMbIf2TtXgQ-2">
          <mxGeometry relative="1" as="geometry" />
        </mxCell>
        <mxCell id="HFxGlrl3mzMbIf2TtXgQ-6" value="heart-of-joy" style="rounded=0;whiteSpace=wrap;html=1;" vertex="1" parent="1">
          <mxGeometry x="500" y="384" width="120" height="60" as="geometry" />
        </mxCell>
        <mxCell id="HFxGlrl3mzMbIf2TtXgQ-13" value="quasi Plattform" style="text;html=1;align=center;verticalAlign=middle;resizable=0;points=[];autosize=1;strokeColor=none;fillColor=none;" vertex="1" parent="1">
          <mxGeometry x="430" y="620" width="100" height="30" as="geometry" />
        </mxCell>
        <mxCell id="HFxGlrl3mzMbIf2TtXgQ-16" style="edgeStyle=orthogonalEdgeStyle;rounded=0;orthogonalLoop=1;jettySize=auto;html=1;exitX=0.5;exitY=1;exitDx=0;exitDy=0;entryX=0.75;entryY=0;entryDx=0;entryDy=0;" edge="1" parent="1" source="HFxGlrl3mzMbIf2TtXgQ-15" target="HFxGlrl3mzMbIf2TtXgQ-6">
          <mxGeometry relative="1" as="geometry" />
        </mxCell>
        <mxCell id="HFxGlrl3mzMbIf2TtXgQ-15" value="uart-driver" style="rounded=0;whiteSpace=wrap;html=1;" vertex="1" parent="1">
          <mxGeometry x="585" y="250" width="120" height="60" as="geometry" />
        </mxCell>
        <mxCell id="HFxGlrl3mzMbIf2TtXgQ-20" value="vermutlich sogar nur ein treiber, wg. ardafruit-lib bzw. pwm-board" style="text;html=1;align=center;verticalAlign=middle;resizable=0;points=[];autosize=1;strokeColor=none;fillColor=none;" vertex="1" parent="1">
          <mxGeometry x="295" y="660" width="370" height="30" as="geometry" />
        </mxCell>
      </root>
    </mxGraphModel>
  </diagram>
</mxfile>
